<mxfile host="65bd71144e">
    <diagram id="xjx--lZoMJlbBBRaA9s5" name="PÃ¡gina-1">
        <mxGraphModel dx="2214" dy="537" grid="1" gridSize="10" guides="1" tooltips="1" connect="1" arrows="1" fold="1" page="1" pageScale="1" pageWidth="827" pageHeight="1169" math="0" shadow="0">
            <root>
                <mxCell id="0"/>
                <mxCell id="1" parent="0"/>
                <mxCell id="45" value="inicio" style="ellipse;whiteSpace=wrap;html=1;fillColor=#660000;" vertex="1" parent="1">
                    <mxGeometry x="330" y="180" width="120" height="80" as="geometry"/>
                </mxCell>
                <mxCell id="46" value="" style="endArrow=classic;html=1;exitX=0.5;exitY=1;exitDx=0;exitDy=0;" edge="1" parent="1" source="45">
                    <mxGeometry width="50" height="50" relative="1" as="geometry">
                        <mxPoint x="390" y="400" as="sourcePoint"/>
                        <mxPoint x="390" y="300" as="targetPoint"/>
                    </mxGeometry>
                </mxCell>
                <mxCell id="50" value="" style="edgeStyle=none;html=1;" edge="1" parent="1" source="47" target="49">
                    <mxGeometry relative="1" as="geometry"/>
                </mxCell>
                <mxCell id="47" value="precio_costo" style="shape=parallelogram;perimeter=parallelogramPerimeter;whiteSpace=wrap;html=1;fixedSize=1;fillColor=#6600CC;" vertex="1" parent="1">
                    <mxGeometry x="320" y="300" width="120" height="60" as="geometry"/>
                </mxCell>
                <mxCell id="52" value="" style="edgeStyle=none;html=1;" edge="1" parent="1" source="49" target="51">
                    <mxGeometry relative="1" as="geometry">
                        <Array as="points">
                            <mxPoint x="640" y="420"/>
                        </Array>
                    </mxGeometry>
                </mxCell>
                <mxCell id="54" value="" style="edgeStyle=none;html=1;" edge="1" parent="1" source="49" target="55">
                    <mxGeometry relative="1" as="geometry">
                        <mxPoint x="40" y="490" as="targetPoint"/>
                        <Array as="points">
                            <mxPoint x="40" y="420"/>
                        </Array>
                    </mxGeometry>
                </mxCell>
                <mxCell id="49" value="pre&amp;lt;cio_costo&amp;lt;3000" style="rhombus;whiteSpace=wrap;html=1;fillColor=#00331A;" vertex="1" parent="1">
                    <mxGeometry x="300" y="380" width="160" height="80" as="geometry"/>
                </mxCell>
                <mxCell id="51" value="ganancia=&lt;br&gt;0.15*precio_costo" style="whiteSpace=wrap;html=1;fillColor=#999900;" vertex="1" parent="1">
                    <mxGeometry x="580" y="490" width="120" height="60" as="geometry"/>
                </mxCell>
                <mxCell id="57" value="" style="edgeStyle=none;html=1;" edge="1" parent="1" source="55" target="56">
                    <mxGeometry relative="1" as="geometry">
                        <Array as="points">
                            <mxPoint x="300" y="540"/>
                            <mxPoint x="300" y="620"/>
                        </Array>
                    </mxGeometry>
                </mxCell>
                <mxCell id="60" value="" style="edgeStyle=none;html=1;" edge="1" parent="1" source="55" target="59">
                    <mxGeometry relative="1" as="geometry">
                        <Array as="points">
                            <mxPoint x="-160" y="540"/>
                        </Array>
                    </mxGeometry>
                </mxCell>
                <mxCell id="55" value="precio_costo&amp;lt;=6000" style="rhombus;whiteSpace=wrap;html=1;fillColor=#331A00;" vertex="1" parent="1">
                    <mxGeometry x="-60" y="470" width="200" height="140" as="geometry"/>
                </mxCell>
                <mxCell id="56" value="ganancia=500" style="rounded=1;whiteSpace=wrap;html=1;fillColor=#006600;" vertex="1" parent="1">
                    <mxGeometry x="240" y="660" width="120" height="60" as="geometry"/>
                </mxCell>
                <mxCell id="59" value="ganancia=&lt;br&gt;0.25*preccio_costo" style="rounded=1;whiteSpace=wrap;html=1;fillColor=#009900;" vertex="1" parent="1">
                    <mxGeometry x="-220" y="660" width="120" height="60" as="geometry"/>
                </mxCell>
                <mxCell id="61" value="" style="endArrow=classic;html=1;entryX=0.5;entryY=1;entryDx=0;entryDy=0;exitX=0.5;exitY=1;exitDx=0;exitDy=0;" edge="1" parent="1" source="59" target="56">
                    <mxGeometry relative="1" as="geometry">
                        <mxPoint x="-20" y="760" as="sourcePoint"/>
                        <mxPoint x="80" y="760" as="targetPoint"/>
                        <Array as="points">
                            <mxPoint x="-160" y="770"/>
                            <mxPoint x="300" y="760"/>
                        </Array>
                    </mxGeometry>
                </mxCell>
                <mxCell id="63" value="" style="endArrow=classic;html=1;entryX=0.5;entryY=1;entryDx=0;entryDy=0;" edge="1" parent="1" target="51">
                    <mxGeometry relative="1" as="geometry">
                        <mxPoint x="50" y="770" as="sourcePoint"/>
                        <mxPoint x="340" y="820" as="targetPoint"/>
                        <Array as="points">
                            <mxPoint x="50" y="800"/>
                            <mxPoint x="490" y="810"/>
                            <mxPoint x="640" y="800"/>
                        </Array>
                    </mxGeometry>
                </mxCell>
                <mxCell id="66" value="" style="endArrow=classic;html=1;" edge="1" parent="1">
                    <mxGeometry width="50" height="50" relative="1" as="geometry">
                        <mxPoint x="370" y="810" as="sourcePoint"/>
                        <mxPoint x="370" y="850" as="targetPoint"/>
                    </mxGeometry>
                </mxCell>
                <mxCell id="69" value="" style="edgeStyle=none;html=1;" edge="1" parent="1" source="67" target="68">
                    <mxGeometry relative="1" as="geometry"/>
                </mxCell>
                <mxCell id="67" value="precio_venta=&lt;br&gt;precio_costo+ganancia" style="rounded=0;whiteSpace=wrap;html=1;fillColor=#006666;" vertex="1" parent="1">
                    <mxGeometry x="320" y="850" width="120" height="60" as="geometry"/>
                </mxCell>
                <mxCell id="71" value="" style="edgeStyle=none;html=1;" edge="1" parent="1" source="68" target="70">
                    <mxGeometry relative="1" as="geometry"/>
                </mxCell>
                <mxCell id="68" value="precio_gasta" style="shape=document;whiteSpace=wrap;html=1;boundedLbl=1;rounded=0;fillColor=#660033;" vertex="1" parent="1">
                    <mxGeometry x="320" y="940" width="120" height="80" as="geometry"/>
                </mxCell>
                <mxCell id="70" value="fin" style="ellipse;whiteSpace=wrap;html=1;rounded=0;fillColor=#000066;" vertex="1" parent="1">
                    <mxGeometry x="335" y="1059" width="90" height="110" as="geometry"/>
                </mxCell>
            </root>
        </mxGraphModel>
    </diagram>
</mxfile>